<svg height="516pt" viewBox="0 0 397 516" width="397pt" xmlns="http://www.w3.org/2000/svg"><path d="m380.25 146.25c.55.55.55.55 0 0z" fill="#fff"/><path d="m168.19 19.19c9.84-6.13 20.29-11.24 29.88-17.77 6.99 4.71 14.28 9 21.85 12.69 58.25 33.76 116.46 67.58 174.73 101.31 1.3.63.82 2.37 1.04 3.52-58.81 34.09-117.61 68.19-176.42 102.29-7.09 3.12-13.36 7.73-20.27 11.19-5.74-2.47-10.79-6.22-16.3-9.12-54.22-31.45-108.46-62.87-162.65-94.35-5.69-4.34-12.03-7.71-18.31-11.11.11-.38.33-1.15.44-1.53 4.01-3.2 8.74-5.32 13-8.14 8.49-5.71 17.69-10.25 26.39-15.62 42.23-24.41 84.35-49.01 126.62-73.36z" fill="#00bcd5"/><path d="m1.74 117.84c6.28 3.4 12.62 6.77 18.31 11.11 54.19 31.48 108.43 62.9 162.65 94.35 5.51 2.9 10.56 6.65 16.3 9.12-.03 94.31-.01 188.61-.01 282.92-2.04.05-4.06-.39-5.62-1.76-47.65-34.68-95.3-69.36-142.94-104.05-16.19-11.9-32.64-23.48-48.65-35.62-.27-27.29-.03-54.6-.12-81.91.07-58.05-.1-116.11.08-174.16z"/><path d="m392.4 376.85c.12-.09.35-.26.47-.34-.12.08-.35.25-.47.34z"/><path d="m388.26 379.77c.12-.09.37-.26.49-.34-.12.08-.37.25-.49.34z"/><path d="m385.41 381.76c.12-.08.36-.26.48-.35-.12.09-.36.27-.48.35z"/><path d="m381.53 384.86c.09-.07.28-.22.37-.3-.09.08-.28.23-.37.3z"/><path d="m219.27 221.23c58.81-34.1 117.61-68.2 176.42-102.29-.25 85.18.05 170.37-.15 255.55-.89.67-1.78 1.34-2.67 2.02-.12.08-.35.25-.47.34-1.21.87-2.43 1.73-3.65 2.58-.12.08-.37.25-.49.34-.59.41-1.78 1.23-2.37 1.64-.12.09-.36.27-.48.35-1.18.92-2.35 1.86-3.51 2.8-.09.08-.28.23-.37.3-4.38 3.95-9.42 7.02-14.07 10.62-41.68 30.32-83.31 60.7-125 90.99-13.25 9.97-27.06 19.22-40.04 29.53h-3.44l.01-.66c0-94.31-.02-188.61.01-282.92 6.91-3.46 13.18-8.07 20.27-11.19m160.98-74.98c.55.55.55.55 0 0z" fill="#ff8b1e"/></svg>