<svg height="1024pt" viewBox="0 0 1024 1024" width="1024pt" xmlns="http://www.w3.org/2000/svg"><path d="m0 0h1024v1024h-1024zm504.58 257.59c-52.78 30.54-105.5 61.17-158.24 91.77-9.62 5.2-18.71 11.31-28.17 16.8-1.45.88-3.03 1.81-3.58 3.54.19 85.43-.01 170.86.1 256.29 63.43 46.35 127.06 92.44 190.5 138.77 1.93 1.67 4.32 2.54 6.77 3.16 3.63.8 6.08-2.37 8.78-4.17 53.44-38.89 106.87-77.79 160.29-116.7 4.43-3.45 9.34-6.27 13.39-10.18.11-.09.34-.27.46-.37 2.22-1.48 4.45-2.97 6.54-4.65.1-.08.31-.24.41-.32 1.18-.91 2.37-1.81 3.57-2.69.11-.08.33-.23.44-.31.62-.42 1.85-1.25 2.46-1.66.39-29.62.05-59.25.17-88.87-.09-55.49.17-111-.13-166.49-.17-1.31.62-3.02-.54-4-58.54-33.86-116.98-67.89-175.52-101.74-7.34-3.66-14.59-7.66-21.24-12.46-2 1.64-4.23 2.98-6.46 4.28z" fill="#fff"/><path d="m693.25 398.25c.54.55.54.55 0 0z" fill="#fff"/><path d="m504.58 257.59c2.23-1.3 4.46-2.64 6.46-4.28 6.65 4.8 13.9 8.8 21.24 12.46 58.54 33.85 116.98 67.88 175.52 101.74 1.16.98.37 2.69.54 4-10.87 5.5-21.17 12.07-31.78 18.05-48.1 27.9-96.2 55.79-144.3 83.67-7.07 3.17-13.41 7.67-20.26 11.24-3.24-1.47-6.31-3.26-9.33-5.13-56.32-32.68-112.67-65.31-168.98-98.01-6-4.46-12.56-8.04-19.1-11.63.55-1.73 2.13-2.66 3.58-3.54 9.46-5.49 18.55-11.6 28.17-16.8 52.74-30.6 105.46-61.23 158.24-91.77z" fill="#00bcd5"/><path d="m314.59 369.7c6.54 3.59 13.1 7.17 19.1 11.63 56.31 32.7 112.66 65.33 168.98 98.01 3.02 1.87 6.09 3.66 9.33 5.13-.04 94.49.01 188.97-.04 283.45-2.45-.62-4.84-1.49-6.77-3.16-63.44-46.33-127.07-92.42-190.5-138.77-.11-85.43.09-170.86-.1-256.29z"/><path d="m705.4 628.84c.11-.08.33-.23.44-.31-.11.08-.33.23-.44.31z"/><path d="m701.42 631.85c.1-.08.31-.24.41-.32-.1.08-.31.24-.41.32z"/><path d="m694.42 636.87c.11-.09.34-.27.46-.37-.12.1-.35.28-.46.37z"/><path d="m676.56 389.56c10.61-5.98 20.91-12.55 31.78-18.05.3 55.49.04 111 .13 166.49-.12 29.62.22 59.25-.17 88.87-.61.41-1.84 1.24-2.46 1.66-.11.08-.33.23-.44.31-1.2.88-2.39 1.78-3.57 2.69-.1.08-.31.24-.41.32-2.09 1.68-4.32 3.17-6.54 4.65-.12.1-.35.28-.46.37-4.05 3.91-8.96 6.73-13.39 10.18-53.42 38.91-106.85 77.81-160.29 116.7-2.7 1.8-5.15 4.97-8.78 4.17.05-94.48 0-188.96.04-283.45 6.85-3.57 13.19-8.07 20.26-11.24 48.1-27.88 96.2-55.77 144.3-83.67m16.69 8.69c.54.55.54.55 0 0z" fill="#ff8b1e"/></svg>