<svg height="1201pt" viewBox="0 0 1201 1201" width="1201pt" xmlns="http://www.w3.org/2000/svg"><path d="m585.63 0h31.42c40.08 1.71 80.13 6.51 119.21 15.74 77.3 17.82 151.02 51.11 215.22 97.74 47.15 34.07 89.34 75 124.85 121.08 52.4 68.08 90.24 147.47 109.23 231.31 6.25 27.37 10.67 55.16 13.11 83.13 1.25 11.84 1.45 23.75 2.33 35.6v30.54c-1.37 22.99-2.81 46.04-6.02 68.88-11.98 87.35-43.86 171.87-92.42 245.45-46.02 70.11-106.68 130.66-177.31 175.92-6.52-36.2-15.61-71.93-26.86-106.94-4.36-10.93-6.61-22.8-12.84-32.91-7.98-12.07-19.26-21.49-30.91-29.87 1.82-.73 3.69-1.54 5.02-3.05 14.69-15.45 29.23-31.2 41.02-49.03 6.92-10.55 13.06-21.73 17.13-33.7 7-22.46 2.99-47.29-7.84-67.86-10.21-21.66-26.4-40.3-33.63-63.38-3.24-10.14-1.44-21.14 2.46-30.83 13.35-32.2 16.39-68.91 6.76-102.55-4.71-16.01-11.99-31.37-22.14-44.67-7.89-10.73-16.62-20.79-24.5-31.52-7.22-10-12.56-21.36-15.5-33.35-3.29-14.96-2.92-30.4-4.98-45.53-2.76-23.47-11.55-45.71-21.73-66.85-14.11-27.91-32.32-54.42-56.84-74.18-20.9-16.98-46.88-27.98-73.85-29.75-9.38-.36-18.77.04-28.12.87-9.09 1.09-17.8 4.2-26.85 5.51-4.99.75-9.94-.6-14.89-1.07-36.24-4.08-73.67.75-107.31 15.04-18.73 8.38-36.53 19.36-51.08 33.93-10.94 10.63-19.47 23.59-25.25 37.68-15.13 35.64-17.34 75.8-36.35 109.94-9.19 17.28-23.37 31.1-37.65 44.18-12.23 12.42-23.59 26.02-31.33 41.75-7.4 14.38-11.5 30.57-11.08 46.79.19 22.91 7.98 44.93 17.33 65.58 6.91 14.74 16.1 28.56 20.54 44.36 4.29 15.37 1.49 31.87-4.68 46.32-8.7 20.14-20.43 38.99-26.93 60.06-4.38 13.39-5.9 27.77-3.79 41.74 2.43 18.35 9.42 35.82 18.45 51.89 6.29 10.99 13.58 21.49 22.44 30.58 1.6 1.87 4.12 2.18 6.4 2.58-11.19 8.16-22.21 17-30.38 28.31-5.02 7.94-6.03 17.5-8.45 26.39-10.27 38.33-19.58 76.92-27.75 115.74-98.69-62.33-178.32-154.19-226.28-260.59-18.02-40.06-31.56-82.14-40.42-125.16-7.29-34.7-11.06-70.06-12.59-105.43v-29.4c1.37-14.66 1.39-29.41 2.99-44.06 8.82-94.62 40.88-186.94 92.36-266.81 62.35-97.13 153.24-175.75 258.57-223.02 35.35-15.82 72.08-28.64 109.85-37.24 28.03-6.45 56.52-10.89 85.17-13.45 12.2-1.21 24.47-1.56 36.69-2.43z" fill="#263151"/><path d="m637.9 260.29c9.35-.83 18.74-1.23 28.12-.87 26.97 1.77 52.95 12.77 73.85 29.75 24.52 19.76 42.73 46.27 56.84 74.18 10.18 21.14 18.97 43.38 21.73 66.85 2.06 15.13 1.69 30.57 4.98 45.53 2.94 11.99 8.28 23.35 15.5 33.35 7.88 10.73 16.61 20.79 24.5 31.52 10.15 13.3 17.43 28.66 22.14 44.67 9.63 33.64 6.59 70.35-6.76 102.55-3.9 9.69-5.7 20.69-2.46 30.83 7.23 23.08 23.42 41.72 33.63 63.38 10.83 20.57 14.84 45.4 7.84 67.86-4.07 11.97-10.21 23.15-17.13 33.7-11.79 17.83-26.33 33.58-41.02 49.03-1.33 1.51-3.2 2.32-5.02 3.05-48.85-31.5-105.06-48.55-160.68-63.68-8.22-2.52-16.74-3.96-24.95-6.47-.94-1.3-.38-3.1-.56-4.58.12-16.33.09-32.67.05-49 .08-5.94-.28-11.9.32-17.82 32.9-21 57.57-52.96 74.51-87.76 2.86-6.39 6.3-12.62 7.98-19.46.82-2.05-.66-3.82-1.66-5.46-4.55-6.68-10.4-12.32-15.62-18.44-8.9-10.26-14.85-23.38-15.18-37.07-1.12-21 8.05-40.5 11.74-60.8 3.53-16.74 3.48-34.95-4.25-50.56-6.33-13.19-18.34-23.27-32.2-27.77-15.21-5.17-31.68-4.85-46.85-10.14-13.97-4.81-25.84-14.83-33.81-27.17-7.37-11.08-11.57-23.96-13.54-37.04-5.41 9.14-10.06 18.72-15.7 27.73-10.33 17.19-22.09 33.6-35.92 48.16-10.24 10.55-21.28 20.67-34.33 27.65-9.65 5.48-19.82 10.38-28.02 18.02-4.82 4.64-9.34 9.78-12.13 15.93-5.52 11.87-5.95 25.55-3.48 38.25 4.69 24.53 13.44 48.15 16.85 72.94 4.89 26.16 2.46 54.34-10.37 77.97 11.01 17.49 25.5 32.66 41.64 45.49 4.55 3.89 10.06 6.56 14.15 10.98-.27 20.49-.15 40.99-.13 61.49-.05 2.95-.29 5.9-.49 8.86-12.53 3.53-25.49 5.21-38.08 8.47-33.83 7.95-66.91 19.26-98.19 34.43-17.32 8.14-34.36 17.05-49.87 28.33-2.28-.4-4.8-.71-6.4-2.58-8.86-9.09-16.15-19.59-22.44-30.58-9.03-16.07-16.02-33.54-18.45-51.89-2.11-13.97-.59-28.35 3.79-41.74 6.5-21.07 18.23-39.92 26.93-60.06 6.17-14.45 8.97-30.95 4.68-46.32-4.44-15.8-13.63-29.62-20.54-44.36-9.35-20.65-17.14-42.67-17.33-65.58-.42-16.22 3.68-32.41 11.08-46.79 7.74-15.73 19.1-29.33 31.33-41.75 14.28-13.08 28.46-26.9 37.65-44.18 19.01-34.14 21.22-74.3 36.35-109.94 5.78-14.09 14.31-27.05 25.25-37.68 14.55-14.57 32.35-25.55 51.08-33.93 33.64-14.29 71.07-19.12 107.31-15.04 4.95.47 9.9 1.82 14.89 1.07 9.05-1.31 17.76-4.42 26.85-5.51z" fill="#516395"/><path d="m584.24 440.18c5.64-9.01 10.29-18.59 15.7-27.73 1.97 13.08 6.17 25.96 13.54 37.04 7.97 12.34 19.84 22.36 33.81 27.17 15.17 5.29 31.64 4.97 46.85 10.14 13.86 4.5 25.87 14.58 32.2 27.77 7.73 15.61 7.78 33.82 4.25 50.56-3.69 20.3-12.86 39.8-11.74 60.8.33 13.69 6.28 26.81 15.18 37.07 5.22 6.12 11.07 11.76 15.62 18.44 1 1.64 2.48 3.41 1.66 5.46-1.68 6.84-5.12 13.07-7.98 19.46-16.94 34.8-41.61 66.76-74.51 87.76-.6 5.92-.24 11.88-.32 17.82.04 16.33.07 32.67-.05 49 .18 1.48-.38 3.28.56 4.58 8.21 2.51 16.73 3.95 24.95 6.47 55.62 15.13 111.83 32.18 160.68 63.68 11.65 8.38 22.93 17.8 30.91 29.87 6.23 10.11 8.48 21.98 12.84 32.91 11.25 35.01 20.34 70.74 26.86 106.94-72.32 47.38-155.52 77.64-241.01 89.83-10.69 1.31-21.37 3.27-32.18 2.84-29.02.27-58.04.56-87.06.87-8.83.86-17.64-.42-26.41-1.22-91.84-9.36-181.65-40.07-259.3-90.12 8.17-38.82 17.48-77.41 27.75-115.74 2.42-8.89 3.43-18.45 8.45-26.39 8.17-11.31 19.19-20.15 30.38-28.31 15.51-11.28 32.55-20.19 49.87-28.33 31.28-15.17 64.36-26.48 98.19-34.43 12.59-3.26 25.55-4.94 38.08-8.47.2-2.96.44-5.91.49-8.86-.02-20.5-.14-41 .13-61.49-4.09-4.42-9.6-7.09-14.15-10.98-16.14-12.83-30.63-28-41.64-45.49 12.83-23.63 15.26-51.81 10.37-77.97-3.41-24.79-12.16-48.41-16.85-72.94-2.47-12.7-2.04-26.38 3.48-38.25 2.79-6.15 7.31-11.29 12.13-15.93 8.2-7.64 18.37-12.54 28.02-18.02 13.05-6.98 24.09-17.1 34.33-27.65 13.83-14.56 25.59-30.97 35.92-48.16z" fill="#b7bed0"/></svg>