<svg height="512pt" viewBox="0 0 512 512" width="512pt" xmlns="http://www.w3.org/2000/svg"><path d="m233.51 0h44.01c35.47 3.51 70.3 13.7 101.63 30.78 63.29 34.57 111.1 96.76 126.75 167.3 2.57 11.76 4.25 23.69 6.1 35.58v43.86c-4.36 43.12-18.45 85.59-43.11 121.41-13.36 20.27-30.03 38.19-48.41 53.99-17.09-13.24-37.57-20.76-56.51-30.82-13.18-7.01-26.83-13.07-39.95-20.17-7.74-4.05-14.34-11.51-15.35-20.41-1.13-13.16-1.81-26.61.39-39.68 8.57-14.08 19.05-27.26 24.94-42.85 2.7-5.6 3.65-12.25 7.89-16.99 6.37-5.17 14.7-10.08 16.23-18.86 1.52-13.93 1.59-28.07.53-42.04-.49-8.26-7.49-14.08-8.2-22.18-2.23-21.59 2.05-43.42-1.64-64.9-1.45-11.31-7.63-21.41-14.83-29.99-13.05-14.13-31.68-21.88-50.46-24.57-26.42-3.85-54.35-3.6-79.38 6.64-17.54 7.11-32.68 21.04-38.85 39.2-7.08 21.97-1.76 45.25-3.31 67.77.9 10.42-7.86 17.95-8.45 28.09-1.04 12.79-1.36 25.76-.18 38.54.41 10.71 11.52 16.2 13.59 26.3 3.24 9.5 6.26 19.13 10.96 28.05 4.75 10.11 11.84 18.86 17.12 28.66 1.93 12.63 1.89 25.69-.14 38.32-1.65 10.9-11.02 17.79-19.94 22.91-18.27 10.11-36.67 19.99-55.08 29.86-10.15 5.39-20.03 11.3-29.3 18.11-26.25-22.06-47.76-49.52-63.54-79.92-14.9-29.45-23.41-61.75-27.02-94.48v-43.02c2.95-20.99 6.06-42.16 13.44-62.13 18.66-55.29 57.38-103.26 106.8-134.13 33.98-21.65 73.38-33.79 113.27-38.23z" fill="#263151"/><path d="m204.14 86.1c25.03-10.24 52.96-10.49 79.38-6.64 18.78 2.69 37.41 10.44 50.46 24.57 7.2 8.58 13.38 18.68 14.83 29.99 3.69 21.48-.59 43.31 1.64 64.9.71 8.1 7.71 13.92 8.2 22.18 1.06 13.97.99 28.11-.53 42.04-1.53 8.78-9.86 13.69-16.23 18.86-4.24 4.74-5.19 11.39-7.89 16.99-5.89 15.59-16.37 28.77-24.94 42.85-2.2 13.07-1.52 26.52-.39 39.68 1.01 8.9 7.61 16.36 15.35 20.41 13.12 7.1 26.77 13.16 39.95 20.17 18.94 10.06 39.42 17.58 56.51 30.82-24.7 20.28-52.89 36.58-83.42 46.31-18.91 6.87-38.91 9.8-58.71 12.77h-44.84c-52.14-5.53-103.01-25.82-142.95-60.09 9.27-6.81 19.15-12.72 29.3-18.11 18.41-9.87 36.81-19.75 55.08-29.86 8.92-5.12 18.29-12.01 19.94-22.91 2.03-12.63 2.07-25.69.14-38.32-5.28-9.8-12.37-18.55-17.12-28.66-4.7-8.92-7.72-18.55-10.96-28.05-2.07-10.1-13.18-15.59-13.59-26.3-1.18-12.78-.86-25.75.18-38.54.59-10.14 9.35-17.67 8.45-28.09 1.55-22.52-3.77-45.8 3.31-67.77 6.17-18.16 21.31-32.09 38.85-39.2z" fill="#b7bed0"/></svg>