<svg height="960pt" viewBox="0 0 960 960" width="960pt" xmlns="http://www.w3.org/2000/svg"><path d="m412.65 239.33c24.18-6.68 49.35-9.8 74.43-9.26 39.38 1.39 78.53 11.71 113.09 30.75 30.27 16.62 57 39.61 78.05 66.98 23.22 30.22 39.54 65.76 46.87 103.18 8.83 43.27 5.6 88.84-8.74 130.57-18.06 52.52-54.23 98.56-100.93 128.59-3.45-18.37-8.14-36.53-14.58-54.09-2.59-6.88-8.43-11.79-14.18-16.04 9.72-9.61 19.05-20.13 24.62-32.76 3.95-8.88 3.36-19.25-.34-28.1-3.83-9.43-10.46-17.37-14.48-26.69-2.33-5.04-2.22-11.02-.12-16.11 7.07-17.35 6.97-38.01-2.09-54.63-5.4-10.23-15-17.73-19.34-28.58-4.06-9.87-2.32-20.86-5.01-31.05-3.69-14.57-10.7-28.28-19.92-40.12-9.53-12.24-23.28-21.88-38.91-23.88-5.66-.33-11.36-.36-17 .18-4.95 1-9.93 2.53-15.04 1.74-13.41-2.15-27.22-.14-40.05 4.01-13.57 4.84-26.71 13.07-34.29 25.65-9.83 16.87-9.3 37.72-19.66 54.37-4.57 7.84-11.86 13.43-17.91 20.02-8.2 8.94-14.49 20.51-14.18 32.93.06 14.06 6.56 26.94 12.96 39.09 4.47 8.08 4.54 18.21.71 26.55-4.53 10.26-10.91 20.01-12.56 31.3-1.72 13.09 3.1 26.05 10.2 36.85 2.49 3.67 5.08 7.45 8.88 9.91-5.6 4.39-12.17 8.97-13.97 16.29-4.59 17.96-9.23 35.92-13 54.08-29.94-18.98-55.73-44.46-75.18-74.1-19.98-30.24-33-64.97-38.25-100.81-9.04-60.06 5.11-123.21 38.71-173.78 32.76-49.74 83.77-87.15 141.21-103.04z" fill="#263151"/><path d="m479.03 340.01c5.11.79 10.09-.74 15.04-1.74 5.64-.54 11.34-.51 17-.18 15.63 2 29.38 11.64 38.91 23.88 9.22 11.84 16.23 25.55 19.92 40.12 2.69 10.19.95 21.18 5.01 31.05 4.34 10.85 13.94 18.35 19.34 28.58 9.06 16.62 9.16 37.28 2.09 54.63-2.1 5.09-2.21 11.07.12 16.11 4.02 9.32 10.65 17.26 14.48 26.69 3.7 8.85 4.29 19.22.34 28.1-5.57 12.63-14.9 23.15-24.62 32.76-23.52-15.47-51.13-22.81-78.11-29.73 0-9.79-.02-19.58.02-29.37 13.73-9.04 24.22-22.36 31.28-37.11 1.25-2.8 2.88-5.57 3.17-8.67-2.74-5.42-8.16-8.92-10.81-14.42-3.69-6.67-3.14-14.7-1.28-21.83 2.3-8.8 5.43-17.8 4-27.01-.93-7.15-5.13-13.87-11.49-17.39-9.21-5.24-20.96-2.89-29.75-9.14-8.13-5.31-12.28-14.7-13.97-23.95-7.59 14.4-16.43 28.68-29.3 38.98-6.69 5.49-15.74 7.9-21.1 15.01-4.29 5.58-5.03 13.16-3.57 19.88 2.81 13.85 8.16 27.37 7.84 41.7.03 7.28-1.97 14.42-5.2 20.91 5.92 9.29 14.11 16.92 23.1 23.2-.04 9.77.04 19.54-.05 29.31-15.82 3.46-31.73 7-46.68 13.39-10.95 4.79-22 9.74-31.63 16.92-3.8-2.46-6.39-6.24-8.88-9.91-7.1-10.8-11.92-23.76-10.2-36.85 1.65-11.29 8.03-21.04 12.56-31.3 3.83-8.34 3.76-18.47-.71-26.55-6.4-12.15-12.9-25.03-12.96-39.09-.31-12.42 5.98-23.99 14.18-32.93 6.05-6.59 13.34-12.18 17.91-20.02 10.36-16.65 9.83-37.5 19.66-54.37 7.58-12.58 20.72-20.81 34.29-25.65 12.83-4.15 26.64-6.16 40.05-4.01z" fill="#516395"/><path d="m450.42 440.37c12.87-10.3 21.71-24.58 29.3-38.98 1.69 9.25 5.84 18.64 13.97 23.95 8.79 6.25 20.54 3.9 29.75 9.14 6.36 3.52 10.56 10.24 11.49 17.39 1.43 9.21-1.7 18.21-4 27.01-1.86 7.13-2.41 15.16 1.28 21.83 2.65 5.5 8.07 9 10.81 14.42-.29 3.1-1.92 5.87-3.17 8.67-7.06 14.75-17.55 28.07-31.28 37.11-.04 9.79-.02 19.58-.02 29.37 26.98 6.92 54.59 14.26 78.11 29.73 5.75 4.25 11.59 9.16 14.18 16.04 6.44 17.56 11.13 35.72 14.58 54.09-32.36 21.25-69.94 34.28-108.38 38.49-13.66.51-27.35.31-41.02.63-6.03.24-12.02-.58-17.98-1.29-36.11-4.61-71.28-17.13-101.88-36.91 3.77-18.16 8.41-36.12 13-54.08 1.8-7.32 8.37-11.9 13.97-16.29 9.63-7.18 20.68-12.13 31.63-16.92 14.95-6.39 30.86-9.93 46.68-13.39.09-9.77.01-19.54.05-29.31-8.99-6.28-17.18-13.91-23.1-23.2 3.23-6.49 5.23-13.63 5.2-20.91.32-14.33-5.03-27.85-7.84-41.7-1.46-6.72-.72-14.3 3.57-19.88 5.36-7.11 14.41-9.52 21.1-15.01z" fill="#b7bed0"/></svg>