<svg height="960pt" viewBox="0 0 960 960" width="960pt" xmlns="http://www.w3.org/2000/svg"><path d="m439.05 232.89c6.59-1.16 13.28-1.56 19.85-2.78 13.02-.28 26.06-.03 39.09-.12 9.67 1.17 19.4 2.06 28.97 3.97 40.7 7.51 79.29 25.64 111.33 51.79 10.08 7.82 18.61 17.34 27.68 26.26 24.66 27.56 43.53 60.42 54.02 95.94 5.28 17.27 8 35.19 10.03 53.07-.02 12.33-.01 24.66-.01 37-1.27 11.09-2.49 22.23-4.85 33.17-7.49 36.96-23.84 71.98-46.85 101.8-11.02 14.47-23.95 27.39-37.71 39.24-5.32-4.54-11.28-8.26-17.52-11.37-22.67-11.34-45.34-22.67-67.99-34.05-7.29-3.56-15.34-6.93-19.68-14.24-5.68-8.03-4.65-18.23-4.74-27.51.19-6.01-.32-12.03.04-18.02-.01-2.24 1.13-4.19 2.5-5.87 10.67-13.51 19.17-28.68 25.45-44.69 1.42-3.56 2.3-7.37 4.25-10.69 2.22-1.82 5.04-2.75 7.35-4.48 5.78-3.92 9.37-10.57 10.2-17.44.97-7.93-.06-15.92.27-23.88.13-8.39.86-17.55-3.66-25.03-1.8-3.27-5.7-5.76-5.13-9.92.16-14.37-.14-28.74.2-43.11 1.57-17.47-3.16-35.89-14.88-49.22-8.86-10.53-21.26-17.47-34.26-21.55-10.67-3.48-21.88-4.95-33.05-5.53-6.59-.96-13.25-.65-19.84.04-16.49.63-33.16 3.94-47.89 11.59-15.14 7.84-27.22 21.79-31.88 38.29-2.14 6.61-2.56 13.6-2.81 20.5.99 15.29.21 30.64.54 45.96-.17 2.58.56 5.6-1.3 7.75-2.37 3.05-4.95 6.09-6.02 9.89-2.51 8.22-1.3 16.9-1.54 25.35.21 9.02-1.14 18.58 2.8 27.04 1.54 3.57 4.38 6.3 7.16 8.93 2.11 1.8 2.72 4.61 3.48 7.16 5.09 19.24 14.38 37.21 26.05 53.27 1.12 1.67 2.54 3.38 2.48 5.53.18 5.69-.03 11.39.03 17.08-.05 7.06.81 14.39-1.77 21.15-2.52 7.45-8.26 13.44-15.1 17.15-19.42 10.62-38.86 21.21-58.29 31.82-9.49 5.22-19.44 9.91-27.57 17.22-21.44-18.32-40.08-40.04-54.34-64.4-8.6-13.7-14.96-28.66-20.46-43.83-7.58-21.28-11.88-43.64-13.71-66.11.05-11.68.01-23.35.02-35.02 1.49-13.43 3.07-26.92 6.3-40.08 9.43-40.54 29.54-78.38 57.28-109.36 5.69-5.96 11.64-11.66 17.42-17.54 35.47-32.51 80.51-54.53 128.06-62.12z" fill="#263151"/><path d="m470.11 305.67c6.59-.69 13.25-1 19.84-.04 11.17.58 22.38 2.05 33.05 5.53 13 4.08 25.4 11.02 34.26 21.55 11.72 13.33 16.45 31.75 14.88 49.22-.34 14.37-.04 28.74-.2 43.11-.57 4.16 3.33 6.65 5.13 9.92 4.52 7.48 3.79 16.64 3.66 25.03-.33 7.96.7 15.95-.27 23.88-.83 6.87-4.42 13.52-10.2 17.44-2.31 1.73-5.13 2.66-7.35 4.48-1.95 3.32-2.83 7.13-4.25 10.69-6.28 16.01-14.78 31.18-25.45 44.69-1.37 1.68-2.51 3.63-2.5 5.87-.36 5.99.15 12.01-.04 18.02.09 9.28-.94 19.48 4.74 27.51 4.34 7.31 12.39 10.68 19.68 14.24 22.65 11.38 45.32 22.71 67.99 34.05 6.24 3.11 12.2 6.83 17.52 11.37-13.99 11.52-28.98 21.96-45.26 30.02-8.25 4.9-17.35 8.04-26.08 11.94-19.18 6.85-38.98 12.27-59.28 14.46-3.99.49-7.93 1.47-11.97 1.39-12.66-.09-25.32.03-37.97-.05-11.83-1.47-23.69-2.98-35.33-5.58-38.92-9.04-75.79-27.11-106.23-53.06 8.13-7.31 18.08-12 27.57-17.22 19.43-10.61 38.87-21.2 58.29-31.82 6.84-3.71 12.58-9.7 15.1-17.15 2.58-6.76 1.72-14.09 1.77-21.15-.06-5.69.15-11.39-.03-17.08.06-2.15-1.36-3.86-2.48-5.53-11.67-16.06-20.96-34.03-26.05-53.27-.76-2.55-1.37-5.36-3.48-7.16-2.78-2.63-5.62-5.36-7.16-8.93-3.94-8.46-2.59-18.02-2.8-27.04.24-8.45-.97-17.13 1.54-25.35 1.07-3.8 3.65-6.84 6.02-9.89 1.86-2.15 1.13-5.17 1.3-7.75-.33-15.32.45-30.67-.54-45.96.25-6.9.67-13.89 2.81-20.5 4.66-16.5 16.74-30.45 31.88-38.29 14.73-7.65 31.4-10.96 47.89-11.59z" fill="#b7bed0"/></svg>